<?xml version="1.0" encoding="UTF-8" standalone="no"?>
<!DOCTYPE svg PUBLIC "-//W3C//DTD SVG 1.1//EN"
 "http://www.w3.org/Graphics/SVG/1.1/DTD/svg11.dtd">
<!-- Generated by graphviz version 2.43.0 (0)
 -->
<!-- Title: snakemake_dag Pages: 1 -->
<svg width="276pt" height="188pt"
 viewBox="0.00 0.00 276.00 188.00" xmlns="http://www.w3.org/2000/svg" xmlns:xlink="http://www.w3.org/1999/xlink">
<g id="graph0" class="graph" transform="scale(1 1) rotate(0) translate(4 184)">
<title>snakemake_dag</title>
<polygon fill="white" stroke="transparent" points="-4,4 -4,-184 272,-184 272,4 -4,4"/>
<!-- 0 -->
<g id="node1" class="node">
<title>0</title>
<path fill="none" stroke="#d85656" stroke-width="2" d="M149.5,-36C149.5,-36 119.5,-36 119.5,-36 113.5,-36 107.5,-30 107.5,-24 107.5,-24 107.5,-12 107.5,-12 107.5,-6 113.5,0 119.5,0 119.5,0 149.5,0 149.5,0 155.5,0 161.5,-6 161.5,-12 161.5,-12 161.5,-24 161.5,-24 161.5,-30 155.5,-36 149.5,-36"/>
<text text-anchor="middle" x="134.5" y="-15.5" font-family="sans" font-size="10.00">all</text>
</g>
<!-- 1 -->
<g id="node2" class="node">
<title>1</title>
<path fill="none" stroke="#5673d8" stroke-width="2" d="M71.5,-108C71.5,-108 31.5,-108 31.5,-108 25.5,-108 19.5,-102 19.5,-96 19.5,-96 19.5,-84 19.5,-84 19.5,-78 25.5,-72 31.5,-72 31.5,-72 71.5,-72 71.5,-72 77.5,-72 83.5,-78 83.5,-84 83.5,-84 83.5,-96 83.5,-96 83.5,-102 77.5,-108 71.5,-108"/>
<text text-anchor="middle" x="51.5" y="-87.5" font-family="sans" font-size="10.00">star_index</text>
</g>
<!-- 1&#45;&gt;0 -->
<g id="edge1" class="edge">
<title>1&#45;&gt;0</title>
<path fill="none" stroke="grey" stroke-width="2" d="M72.02,-71.7C82.37,-62.97 95.09,-52.24 106.34,-42.75"/>
<polygon fill="grey" stroke="grey" stroke-width="2" points="108.83,-45.23 114.22,-36.1 104.32,-39.88 108.83,-45.23"/>
</g>
<!-- 2 -->
<g id="node3" class="node">
<title>2</title>
<path fill="none" stroke="#b6d856" stroke-width="2" d="M169.5,-180C169.5,-180 117.5,-180 117.5,-180 111.5,-180 105.5,-174 105.5,-168 105.5,-168 105.5,-156 105.5,-156 105.5,-150 111.5,-144 117.5,-144 117.5,-144 169.5,-144 169.5,-144 175.5,-144 181.5,-150 181.5,-156 181.5,-156 181.5,-168 181.5,-168 181.5,-174 175.5,-180 169.5,-180"/>
<text text-anchor="middle" x="143.5" y="-159.5" font-family="sans" font-size="10.00">get_genome</text>
</g>
<!-- 2&#45;&gt;1 -->
<g id="edge4" class="edge">
<title>2&#45;&gt;1</title>
<path fill="none" stroke="grey" stroke-width="2" d="M120.76,-143.7C109.06,-134.8 94.64,-123.82 81.99,-114.2"/>
<polygon fill="grey" stroke="grey" stroke-width="2" points="84.06,-111.37 73.98,-108.1 79.82,-116.94 84.06,-111.37"/>
</g>
<!-- 4 -->
<g id="node5" class="node">
<title>4</title>
<path fill="none" stroke="#d87556" stroke-width="2" d="M155,-108C155,-108 114,-108 114,-108 108,-108 102,-102 102,-96 102,-96 102,-84 102,-84 102,-78 108,-72 114,-72 114,-72 155,-72 155,-72 161,-72 167,-78 167,-84 167,-84 167,-96 167,-96 167,-102 161,-108 155,-108"/>
<text text-anchor="middle" x="134.5" y="-87.5" font-family="sans" font-size="10.00">bwa_index</text>
</g>
<!-- 2&#45;&gt;4 -->
<g id="edge6" class="edge">
<title>2&#45;&gt;4</title>
<path fill="none" stroke="grey" stroke-width="2" d="M141.28,-143.7C140.28,-135.98 139.09,-126.71 137.99,-118.11"/>
<polygon fill="grey" stroke="grey" stroke-width="2" points="141.45,-117.58 136.7,-108.1 134.5,-118.47 141.45,-117.58"/>
</g>
<!-- 5 -->
<g id="node6" class="node">
<title>5</title>
<path fill="none" stroke="#d8c356" stroke-width="2" d="M256,-108C256,-108 197,-108 197,-108 191,-108 185,-102 185,-96 185,-96 185,-84 185,-84 185,-78 191,-72 197,-72 197,-72 256,-72 256,-72 262,-72 268,-78 268,-84 268,-84 268,-96 268,-96 268,-102 262,-108 256,-108"/>
<text text-anchor="middle" x="226.5" y="-87.5" font-family="sans" font-size="10.00">genome_faidx</text>
</g>
<!-- 2&#45;&gt;5 -->
<g id="edge7" class="edge">
<title>2&#45;&gt;5</title>
<path fill="none" stroke="grey" stroke-width="2" d="M164.02,-143.7C174.37,-134.97 187.09,-124.24 198.34,-114.75"/>
<polygon fill="grey" stroke="grey" stroke-width="2" points="200.83,-117.23 206.22,-108.1 196.32,-111.88 200.83,-117.23"/>
</g>
<!-- 3 -->
<g id="node4" class="node">
<title>3</title>
<path fill="none" stroke="#ced856" stroke-width="2" d="M75,-180C75,-180 12,-180 12,-180 6,-180 0,-174 0,-168 0,-168 0,-156 0,-156 0,-150 6,-144 12,-144 12,-144 75,-144 75,-144 81,-144 87,-150 87,-156 87,-156 87,-168 87,-168 87,-174 81,-180 75,-180"/>
<text text-anchor="middle" x="43.5" y="-159.5" font-family="sans" font-size="10.00">get_annotation</text>
</g>
<!-- 3&#45;&gt;1 -->
<g id="edge5" class="edge">
<title>3&#45;&gt;1</title>
<path fill="none" stroke="grey" stroke-width="2" d="M45.48,-143.7C46.36,-135.98 47.42,-126.71 48.4,-118.11"/>
<polygon fill="grey" stroke="grey" stroke-width="2" points="51.89,-118.44 49.55,-108.1 44.93,-117.64 51.89,-118.44"/>
</g>
<!-- 4&#45;&gt;0 -->
<g id="edge2" class="edge">
<title>4&#45;&gt;0</title>
<path fill="none" stroke="grey" stroke-width="2" d="M134.5,-71.7C134.5,-63.98 134.5,-54.71 134.5,-46.11"/>
<polygon fill="grey" stroke="grey" stroke-width="2" points="138,-46.1 134.5,-36.1 131,-46.1 138,-46.1"/>
</g>
<!-- 5&#45;&gt;0 -->
<g id="edge3" class="edge">
<title>5&#45;&gt;0</title>
<path fill="none" stroke="grey" stroke-width="2" d="M203.76,-71.7C192.06,-62.8 177.64,-51.82 164.99,-42.2"/>
<polygon fill="grey" stroke="grey" stroke-width="2" points="167.06,-39.37 156.98,-36.1 162.82,-44.94 167.06,-39.37"/>
</g>
</g>
</svg>
